<svg xmlns="http://www.w3.org/2000/svg" height="800" width="1200" xml:space="preserve" y="0" x="0" id="Layer_1" version="1.1" viewBox="-27.87 -8.15 241.54 48.9"><style id="style1205" type="text/css">.st0{fill:#505353}.st1{fill:#addfed}</style><path id="polygon1207" class="st0" d="M5.1 31.9V20.8h.1L13 31.9h6.1l-8.8-12.5 8.1-9.5h-6.1l-7.2 8.4V0H0v31.9z"/><path id="path1209" d="M18.7 20.9c0-7.2 3.4-11.5 9.7-11.5 6.3 0 9.7 4.3 9.7 11.5s-3.4 11.5-9.7 11.5c-6.3 0-9.7-4.3-9.7-11.5m9.7 7.9c3.7 0 4.3-3.8 4.3-7.9 0-4.1-.6-7.9-4.3-7.9-3.7 0-4.3 3.8-4.3 7.9 0 4.1.6 7.9 4.3 7.9" class="st0"/><path id="path1211" d="M46.1 12.5c.8-1.1 2.4-3.1 5.8-3.1 5.3 0 7.6 4.5 7.6 11.5 0 6.2-2.1 11.5-9.3 11.5-5.8 0-9.2-3.3-9.2-9.9V0h5.1zm4 16.3c3.3 0 3.8-4.3 3.8-7.9 0-4-.4-8.2-3.8-8.2-3.1 0-4.1 4.5-4.1 8.2.1 5.5.9 7.9 4.1 7.9" class="st0"/><path id="path1213" d="M62 20.9c0-7.2 3.4-11.5 9.7-11.5 6.3 0 9.7 4.3 9.7 11.5S78 32.4 71.7 32.4c-6.3 0-9.7-4.3-9.7-11.5m9.7 7.9c3.7 0 4.3-3.8 4.3-7.9 0-4.1-.6-7.9-4.3-7.9-3.7 0-4.3 3.8-4.3 7.9 0 4.1.6 7.9 4.3 7.9" class="st0"/><path id="path1215" d="M119.8 18c-.2-4.8-4.2-8.7-9-8.7-4.9 0-8.9 3.8-9 8.7v5.7c.2 4.8 4.2 8.7 9 8.7 4.9 0 8.9-3.8 9-8.7V18m-4.4 5.4c0 2.5-2.1 4.6-4.6 4.6-2.5 0-4.6-2.1-4.6-4.6v-4.9c0-2.5 2.1-4.6 4.6-4.6 2.6 0 4.6 2.1 4.6 4.6z" class="st1"/><path id="path1217" d="M143.8 27.7c-1.6-.6-2.4-2.3-2.4-4.3V11.5c0-1.2-1-2.2-2.2-2.2-1.2 0-2.2 1-2.2 2.2v11.7c0 2.5-2.1 4.6-4.6 4.6-2.5 0-4.6-2.1-4.6-4.6V11.4c0-1.2-1-2.2-2.2-2.2-1.2 0-2.2 1-2.2 2.2v12.1c.2 4.8 4.2 8.7 9 8.7 2.6 0 5-1.1 6.6-2.9.8 1 1.8 1.8 3.1 2.3.3.1.6.2.9.2 1.2 0 2.2-1 2.2-2.2 0-.7-.6-1.5-1.4-1.9" class="st1"/><path id="path1219" d="M162.2 23c-1.1 0-1.9.7-2.2 1.7-.6 1.9-2.3 3.3-4.4 3.3-2.5 0-4.6-2.1-4.6-4.6v-4.9c0-2.5 2.1-4.6 4.6-4.6 2.1 0 3.8 1.4 4.4 3.3.2 1 1.1 1.7 2.2 1.7 1.2 0 2.2-1 2.2-2.2 0-.3 0-.5-.1-.8-1.1-3.7-4.6-6.4-8.7-6.4-4.9 0-8.9 3.8-9 8.7v5.7c.2 4.8 4.2 8.7 9 8.7 4.1 0 7.6-2.7 8.7-6.5 0-.1.1-.5.1-.7 0-1.4-1-2.4-2.2-2.4" class="st1"/><path id="path1221" d="M98.3 9.4h-3.8V5c0-1.2-1-2.2-2.2-2.2C91 2.8 90 3.8 90 5v4.4h-3.8c-1.2 0-2.2 1-2.2 2.2 0 1.2 1 2.2 2.2 2.2H90v10.3c.1 3.7 2 6.8 5.1 8 .3.1.6.2.9.2 1.2 0 2.2-1 2.2-2.2 0-.9-.6-1.7-1.4-2-1.6-.7-2.4-2.4-2.4-4.4v-9.9h3.8c1.2 0 2.2-1 2.2-2.2.1-1.2-.9-2.2-2.1-2.2" class="st1"/><path id="path1223" d="M185.8 18.1c-.2-4.8-4.2-8.7-9-8.7-1.7 0-3.3.5-4.6 1.3V2.3c0-1.2-1-2.2-2.2-2.2-1.2 0-2.2 1-2.2 2.2v27.9c0 1.5 1.2 2.2 2.2 2.2 1.2 0 2.2-1 2.2-2.2V18.4c0-2.5 2.1-4.6 4.6-4.6 2.5 0 4.6 2.1 4.6 4.6v11.8c0 1.2 1 2.2 2.2 2.2 1.2 0 2.2-1 2.2-2.2V18.1" class="st1"/></svg>