<svg width="263" height="138" viewBox="0 0 263 138" fill="none" xmlns="http://www.w3.org/2000/svg">
<path d="M66.3223 119.596H61.8066V108.784C61.8066 108.055 61.8118 107.477 61.8223 107.05C61.8327 106.622 61.9056 104.841 62.041 101.706H61.9004L56.0098 119.596H51.5723L46.0723 101.675H45.9316C46.1296 105.227 46.2285 107.659 46.2285 108.971V119.596H41.9004V96.7527H48.4941L53.9004 114.221H53.9941L59.7285 96.7527H66.3223V119.596ZM91.291 119.596H86.0723L84.4004 114.159H76.0879L74.4316 119.596H69.2129L77.2754 96.6589H83.1973L91.291 119.596ZM83.2598 110.096L80.666 101.737C80.4681 101.05 80.3327 100.539 80.2598 100.206C79.916 101.529 78.9316 104.826 77.3066 110.096H83.2598ZM94.1816 96.7527H101.479C104.26 96.7527 106.369 97.3516 107.807 98.5496C109.244 99.7475 109.963 101.555 109.963 103.971C109.963 106.378 109.192 108.232 107.65 109.534C106.109 110.826 103.926 111.471 101.104 111.471H99.0254V119.596H94.1816V96.7527ZM99.0254 100.721V107.503H100.619C103.588 107.503 105.072 106.357 105.072 104.065C105.072 102.919 104.76 102.076 104.135 101.534C103.52 100.992 102.551 100.721 101.229 100.721H99.0254ZM112.854 114.034C114.437 114.732 115.755 115.221 116.807 115.503C117.869 115.774 118.885 115.909 119.854 115.909C120.833 115.909 121.604 115.706 122.166 115.3C122.729 114.893 123.01 114.289 123.01 113.487C123.01 113.039 122.89 112.649 122.65 112.315C122.411 111.971 122.041 111.633 121.541 111.3C121.051 110.956 120.083 110.445 118.635 109.768C117.187 109.081 116.119 108.44 115.432 107.846C113.9 106.524 113.135 104.867 113.135 102.878C113.135 100.888 113.817 99.3152 115.182 98.1589C116.557 97.0027 118.452 96.4246 120.869 96.4246C122.9 96.4246 125.161 96.961 127.65 98.0339L126.088 101.8C124.911 101.32 123.916 100.977 123.104 100.768C122.291 100.56 121.463 100.456 120.619 100.456C119.786 100.456 119.119 100.669 118.619 101.096C118.119 101.513 117.869 102.07 117.869 102.768C117.869 103.195 117.963 103.57 118.15 103.893C118.348 104.206 118.661 104.513 119.088 104.815C119.525 105.107 120.557 105.638 122.182 106.409C124.307 107.419 125.765 108.445 126.557 109.487C127.359 110.487 127.76 111.742 127.76 113.253C127.76 115.294 127.015 116.925 125.525 118.143C124.036 119.32 122.02 119.909 119.479 119.909C116.937 119.909 114.729 119.451 112.854 118.534V114.034ZM151.104 119.596H145.885L144.213 114.159H135.9L134.244 119.596H129.025L137.088 96.6589H143.01L151.104 119.596ZM143.072 110.096L140.479 101.737C140.281 101.05 140.145 100.539 140.072 100.206C139.729 101.529 138.744 104.826 137.119 110.096H143.072ZM153.994 96.7527H160.65C163.744 96.7527 166.036 97.3152 167.525 98.4402C169.025 99.5652 169.775 101.284 169.775 103.596C169.775 104.94 169.406 106.138 168.666 107.19C167.926 108.232 166.88 109.05 165.525 109.643C169.192 115.122 171.432 118.44 172.244 119.596H166.869L161.416 110.831H158.838V119.596H153.994V96.7527ZM158.838 100.721V106.893H160.4C161.932 106.893 163.062 106.638 163.791 106.128C164.52 105.617 164.885 104.82 164.885 103.737C164.885 102.654 164.515 101.883 163.775 101.425C163.046 100.956 161.89 100.721 160.307 100.721H158.838ZM188.275 100.721H179.963V105.737H187.682V109.706H179.963V115.596H188.275V119.596H175.119V96.7527H188.275V100.721ZM211.65 96.7527V111.534C211.65 111.565 211.65 111.596 211.65 111.628C211.65 114.128 210.807 116.133 209.119 117.643C207.432 119.154 205.176 119.909 202.354 119.909C202.301 119.909 202.244 119.909 202.182 119.909C199.244 119.909 196.963 119.154 195.338 117.643C193.713 116.133 192.9 114.076 192.9 111.471V96.7527H197.729V110.737C197.729 112.508 198.088 113.805 198.807 114.628C199.525 115.44 200.682 115.846 202.275 115.846C203.869 115.846 205.025 115.435 205.744 114.612C206.463 113.789 206.822 112.487 206.822 110.706V96.7527H211.65ZM215.822 114.034C217.406 114.732 218.723 115.221 219.775 115.503C220.838 115.774 221.854 115.909 222.822 115.909C223.801 115.909 224.572 115.706 225.135 115.3C225.697 114.893 225.979 114.289 225.979 113.487C225.979 113.039 225.859 112.649 225.619 112.315C225.38 111.971 225.01 111.633 224.51 111.3C224.02 110.956 223.051 110.445 221.604 109.768C220.156 109.081 219.088 108.44 218.4 107.846C216.869 106.524 216.104 104.867 216.104 102.878C216.104 100.888 216.786 99.3152 218.15 98.1589C219.525 97.0027 221.421 96.4246 223.838 96.4246C225.869 96.4246 228.13 96.961 230.619 98.0339L229.057 101.8C227.88 101.32 226.885 100.977 226.072 100.768C225.26 100.56 224.432 100.456 223.588 100.456C222.755 100.456 222.088 100.669 221.588 101.096C221.088 101.513 220.838 102.07 220.838 102.768C220.838 103.195 220.932 103.57 221.119 103.893C221.317 104.206 221.63 104.513 222.057 104.815C222.494 105.107 223.525 105.638 225.15 106.409C227.275 107.419 228.734 108.445 229.525 109.487C230.327 110.487 230.729 111.742 230.729 113.253C230.729 115.294 229.984 116.925 228.494 118.143C227.005 119.32 224.989 119.909 222.447 119.909C219.906 119.909 217.697 119.451 215.822 118.534V114.034Z" fill="white"/>
<g filter="url(#filter0_d_53_403)">
<path d="M83.4541 16.1011C85.4164 15.6598 87.5015 16.3387 87.5015 17.2604V78.4039C87.5015 79.4111 85.8343 80.2626 83.6751 80.7326C83.601 80.7489 83.5274 80.7651 83.4541 80.7818L57.7475 86.8259C39.8076 91.0658 25.04 87.5476 25.04 78.9776V35.0903C25.04 32.2487 29.9626 28.7305 36.0884 27.2872L83.4541 16.1011Z" fill="#F6CF00"/>
<path d="M161.042 27.5272C162.905 27.9077 164.085 28.6909 164.085 29.5482V88.8755C164.085 90.5376 159.873 91.6287 156.241 90.9075L109.751 81.6717C107.858 81.2956 106.655 80.5058 106.655 79.6398V20.0546C106.655 18.3819 110.917 17.2913 114.552 18.0337L161.042 27.5272Z" fill="#7AC106"/>
<path d="M240.657 29.2735V73.1609C240.657 76.0025 235.735 79.5207 229.609 80.9641L191.417 89.9891C187.771 90.8511 183.228 89.7654 183.228 88.0325V28.5532C183.228 27.7436 184.28 26.996 185.985 26.5946L207.95 21.4252C225.89 17.1853 240.657 20.7035 240.657 29.2735Z" fill="#329BD7"/>
</g>
<defs>
<filter id="filter0_d_53_403" x="-4" y="-4" width="270.535" height="116.252" filterUnits="userSpaceOnUse" color-interpolation-filters="sRGB">
<feFlood flood-opacity="0" result="BackgroundImageFix"/>
<feColorMatrix in="SourceAlpha" type="matrix" values="0 0 0 0 0 0 0 0 0 0 0 0 0 0 0 0 0 0 127 0" result="hardAlpha"/>
<feOffset/>
<feGaussianBlur stdDeviation="2"/>
<feComposite in2="hardAlpha" operator="out"/>
<feColorMatrix type="matrix" values="0 0 0 0 0 0 0 0 0 0 0 0 0 0 0 0 0 0 0.25 0"/>
<feBlend mode="normal" in2="BackgroundImageFix" result="effect1_dropShadow_53_403"/>
<feBlend mode="normal" in="SourceGraphic" in2="effect1_dropShadow_53_403" result="shape"/>
</filter>
</defs>
</svg>
